<svg width="128" height="32" fill="none" xmlns="http://www.w3.org/2000/svg"><path fill-rule="evenodd" clip-rule="evenodd" d="M54.654 23.625V10.571h3.506V6.554h-3.506V0h-4.936v6.554h-3.035v4.017h3.035v13.054h4.936zM4.97 14.589v9.036H0V6.554h4.97v2.482c.408-.881.99-1.578 1.745-2.09a5.001 5.001 0 012.616-.732c2.64 0 4.425 1 5.355 3 1.221-2.024 2.878-3.035 4.971-3.035s3.692.672 4.796 2.017c1.105 1.346 1.657 3.256 1.657 5.733v9.696h-4.918v-9.107c0-1.048-.25-1.875-.75-2.482-.523-.607-1.21-.911-2.058-.911-.85 0-1.53.286-2.041.857-.512.572-.767 1.44-.767 2.607v9.036h-4.971v-9.214c-.047-1.024-.32-1.828-.82-2.411-.512-.583-1.175-.875-1.988-.875-.814 0-1.489.28-2.024.84-.535.559-.802 1.434-.802 2.624zm41.028-8.035L35.707 32h-5.25l4.011-10.125-6.436-15.321h5.285l3.68 9.678 3.716-9.678h5.285zm30.235 13.964c-1.547 2.321-4.087 3.476-7.622 3.464-2.454 0-4.523-.827-6.21-2.482-1.662-1.679-2.494-3.833-2.494-6.464 0-2.631.832-4.768 2.494-6.411 1.663-1.643 3.721-2.458 6.175-2.446 2.453 0 4.494.833 6.122 2.5 1.628 1.666 2.448 3.833 2.46 6.5 0 .023-.024.547-.07 1.571H64.861c.093.905.546 1.607 1.36 2.107.814.5 1.733.75 2.756.75 1.593 0 2.808-.536 3.645-1.607l3.61 2.518zm-4.082-6.947h-7.22c.186-.928.65-1.654 1.395-2.178.72-.524 1.5-.774 2.337-.75a3.99 3.99 0 012.285.786c.686.5 1.087 1.214 1.203 2.142zm18.319 9.804c-.942.405-1.843.595-2.704.571-2.29 0-4.279-.821-5.965-2.464s-2.529-3.78-2.529-6.41c0-2.631.872-4.768 2.616-6.411 1.745-1.643 3.704-2.47 5.878-2.482.884 0 1.79.196 2.721.589.93.393 1.645.952 2.145 1.678V6.554h4.92v17.071h-4.92v-1.946c-.5.726-1.22 1.291-2.162 1.696zm-1.901-4.25c-1.128 0-2.1-.381-2.913-1.143-.837-.762-1.256-1.726-1.256-2.893 0-1.155.419-2.125 1.256-2.91.907-.774 1.9-1.161 2.982-1.161 1.082 0 2.018.38 2.808 1.143.791.762 1.186 1.738 1.186 2.928S92.239 17.25 91.447 18c-.79.75-1.75 1.125-2.877 1.125zm18.248-4.536v9.036h-4.971V6.554h4.971v2.482c.407-.881.988-1.578 1.744-2.09a5 5 0 012.616-.732c2.64 0 4.425 1 5.355 3 1.221-2.024 2.878-3.035 4.971-3.035s3.692.672 4.797 2.017c1.104 1.346 1.657 3.256 1.657 5.733v9.696h-4.919v-9.107c0-1.048-.25-1.875-.75-2.482-.523-.607-1.209-.911-2.058-.911-.849 0-1.529.286-2.041.857-.512.572-.767 1.44-.767 2.607v9.036h-4.971v-9.214c-.047-1.024-.32-1.828-.82-2.411-.512-.583-1.174-.875-1.988-.875-.814 0-1.489.28-2.024.84-.535.559-.802 1.434-.802 2.624z" fill="#fff"/></svg>